<?xml version="1.0" encoding="UTF-8"?>
<svg id="_레이어_2" data-name="레이어 2" xmlns="http://www.w3.org/2000/svg" viewBox="0 0 62.02 62.02">
  <defs>
    <style>
      .cls-1 {
        fill: #41b649;
      }

      .cls-1, .cls-2 {
        stroke-width: 0px;
      }

      .cls-2 {
        fill: #fff;
      }
    </style>
  </defs>
  <g id="Layer_3" data-name="Layer 3">
    <g>
      <path class="cls-1" d="m62.02,31.01c0,17.13-13.88,31.01-31.01,31.01S0,48.13,0,31.01,13.88,0,31.01,0s31.01,13.88,31.01,31.01Z"/>
      <g>
        <path class="cls-2" d="m32.84,29.4c-.8,0-1.46.65-1.46,1.46s.65,1.45,1.46,1.45,1.46-.65,1.46-1.45-.65-1.46-1.46-1.46Z"/>
        <path class="cls-2" d="m40.81,29.51c-.74,0-1.35.6-1.35,1.35s.6,1.35,1.35,1.35,1.35-.6,1.35-1.35-.6-1.35-1.35-1.35Z"/>
        <path class="cls-2" d="m42.09,17.98h-22.77c-3.36,0-6.08,2.72-6.08,6.08v11.8c0,3.36,2.72,6.08,6.08,6.08h8.56l2.83,5.57,3.2-5.57h8.19c3.36,0,6.08-2.72,6.08-6.08v-11.8c0-3.36-2.72-6.08-6.08-6.08Zm-21.31,16.14c-.62,0-1.2-.17-1.7-.46v.42h-2.28v-9.25h2.28v3.06c.5-.29,1.08-.46,1.7-.46,1.85,0,3.35,1.5,3.35,3.35s-1.5,3.35-3.35,3.35Zm7.1-6.16v6.16h-2.19v-6.16c0-1.34-.85-1.34-.85-1.34v-1.79c2-.03,2.68,1.3,2.92,2.23.11.45.12.81.12.88h0Zm4.96,6.44c-1.96,0-3.54-1.58-3.54-3.54s1.58-3.54,3.54-3.54,3.54,1.58,3.54,3.54-1.58,3.54-3.54,3.54Zm7.64,2.91v-1.79s1.98.23,1.98-.89v-.95c-.49.29-1.05.45-1.65.45-1.81,0-3.27-1.47-3.27-3.27s1.47-3.27,3.27-3.27c.6,0,1.17.17,1.65.45v-.29h2.12v6.88s.46,2.68-4.1,2.68Z"/>
        <path class="cls-2" d="m20.54,29.41c-.75,0-1.36.61-1.36,1.36s.61,1.36,1.36,1.36,1.36-.61,1.36-1.36-.61-1.36-1.36-1.36Z"/>
      </g>
    </g>
  </g>
</svg>