<?xml version="1.0" encoding="UTF-8"?>
<svg id="_레이어_2" data-name="레이어 2" xmlns="http://www.w3.org/2000/svg" xmlns:xlink="http://www.w3.org/1999/xlink" viewBox="0 0 190.67 191.54">
  <defs>
    <style>
      .cls-1 {
        fill: url(#_무제_그라디언트_3-7);
      }

      .cls-1, .cls-2, .cls-3, .cls-4, .cls-5, .cls-6, .cls-7, .cls-8, .cls-9 {
        stroke-width: 0px;
      }

      .cls-2 {
        fill: url(#_무제_그라디언트_3-2);
      }

      .cls-3 {
        fill: url(#_무제_그라디언트_3-3);
      }

      .cls-4 {
        fill: url(#_무제_그라디언트_3-6);
      }

      .cls-5 {
        fill: url(#_무제_그라디언트_3-5);
      }

      .cls-6 {
        fill: url(#_무제_그라디언트_3-4);
      }

      .cls-7 {
        fill: url(#_무제_그라디언트_3);
      }

      .cls-8 {
        fill: #727171;
      }

      .cls-9 {
        fill: #2f2725;
      }
    </style>
    <linearGradient id="_무제_그라디언트_3" data-name="무제 그라디언트 3" x1="73.89" y1="41.16" x2="118.23" y2="97.59" gradientUnits="userSpaceOnUse">
      <stop offset="0" stop-color="#009f5d"/>
      <stop offset="1" stop-color="#449ac9"/>
    </linearGradient>
    <linearGradient id="_무제_그라디언트_3-2" data-name="무제 그라디언트 3" x1="73.51" y1="41.46" x2="117.85" y2="97.89" xlink:href="#_무제_그라디언트_3"/>
    <linearGradient id="_무제_그라디언트_3-3" data-name="무제 그라디언트 3" x1="99.17" y1="21.3" x2="143.51" y2="77.72" xlink:href="#_무제_그라디언트_3"/>
    <linearGradient id="_무제_그라디언트_3-4" data-name="무제 그라디언트 3" x1="66.86" y1="46.68" x2="111.2" y2="103.11" xlink:href="#_무제_그라디언트_3"/>
    <linearGradient id="_무제_그라디언트_3-5" data-name="무제 그라디언트 3" x1="66.38" y1="47.07" x2="110.71" y2="103.49" xlink:href="#_무제_그라디언트_3"/>
    <linearGradient id="_무제_그라디언트_3-6" data-name="무제 그라디언트 3" x1="44.53" y1="64.23" x2="88.87" y2="120.66" xlink:href="#_무제_그라디언트_3"/>
    <linearGradient id="_무제_그라디언트_3-7" data-name="무제 그라디언트 3" x1="71.77" y1="42.83" x2="116.11" y2="99.26" xlink:href="#_무제_그라디언트_3"/>
  </defs>
  <g id="_레이어_1-2" data-name="레이어 1">
    <g>
      <g>
        <path class="cls-9" d="m8.98,165.87l-2.57,8.49h-2l-4.42-13.93h2.46l2.68,8.84.26,1.08.26-1.08,2.62-8.84h2.02l2.62,8.84.26,1.08.26-1.08,2.68-8.84h2.46l-4.42,13.93h-2l-2.57-8.49-.29-1.12-.29,1.12Z"/>
        <path class="cls-9" d="m23.01,172.31h7.39v2.05h-9.81v-13.93h9.52v2.05h-7.09v3.72h5.85v2.03h-5.85v4.07Z"/>
        <path class="cls-9" d="m35.09,172.31h7.21v2.05h-9.63v-13.93h2.42v11.88Z"/>
        <path class="cls-9" d="m46.64,172.31h7.2v2.05h-9.63v-13.93h2.42v11.88Z"/>
        <path class="cls-9" d="m58.19,164.81v9.55h-2.42v-13.93h2.22l6.36,9.63v-9.63h2.42v13.93h-2.22l-6.36-9.55Z"/>
        <path class="cls-9" d="m72.58,172.31h7.39v2.05h-9.81v-13.93h9.52v2.05h-7.1v3.72h5.85v2.03h-5.85v4.07Z"/>
        <path class="cls-9" d="m89.05,163.62c-.82-.95-1.89-1.48-2.93-1.48-1.34,0-1.98.77-1.98,1.67,0,.82.35,1.39,1.52,1.91l1.8.79c1.89.82,3.52,1.74,3.52,4.07s-1.94,4.14-4.84,4.14c-2.51,0-4.42-1.82-5.15-3.19l1.54-1.48c.7,1.54,2.09,2.62,3.61,2.62s2.42-.84,2.42-2.09c0-.62-.15-1.38-1.82-2.07l-1.83-.77c-2.37-.99-3.19-2.29-3.19-3.92,0-2.09,1.72-3.72,4.4-3.72,1.87,0,3.39.82,4.44,2.11l-1.5,1.43Z"/>
        <path class="cls-9" d="m99.99,163.62c-.82-.95-1.89-1.48-2.93-1.48-1.34,0-1.98.77-1.98,1.67,0,.82.35,1.39,1.52,1.91l1.8.79c1.89.82,3.52,1.74,3.52,4.07s-1.94,4.14-4.84,4.14c-2.51,0-4.42-1.82-5.15-3.19l1.54-1.48c.7,1.54,2.09,2.62,3.61,2.62s2.42-.84,2.42-2.09c0-.62-.15-1.38-1.82-2.07l-1.83-.77c-2.37-.99-3.19-2.29-3.19-3.92,0-2.09,1.72-3.72,4.4-3.72,1.87,0,3.39.82,4.44,2.11l-1.5,1.43Z"/>
        <path class="cls-9" d="m111.58,160.43c4.42,0,7.37,3.01,7.37,6.97s-2.95,6.97-7.37,6.97h-3.91v-13.93h3.91Zm-1.48,2.05v9.83h1.48c2.95,0,4.95-2.07,4.95-4.91s-2-4.91-4.95-4.91h-1.48Z"/>
        <path class="cls-9" d="m123.59,174.36h-2.42v-13.93h2.42v13.93Z"/>
        <path class="cls-9" d="m129.05,172.31h7.39v2.05h-9.81v-13.93h9.52v2.05h-7.1v3.72h5.85v2.03h-5.85v4.07Z"/>
        <path class="cls-9" d="m141.9,162.48h-4.47v-2.05h11.37v2.05h-4.47v11.88h-2.42v-11.88Z"/>
        <path class="cls-9" d="m157.6,172.31h7.2v2.05h-9.63v-13.93h2.42v11.88Z"/>
        <path class="cls-9" d="m174.48,170.86h-5.5l-1.43,3.5h-2.49l5.85-13.93h1.65l5.85,13.93h-2.49l-1.43-3.5Zm-4.66-2.05h3.81l-1.91-4.66-1.91,4.66Z"/>
        <path class="cls-9" d="m180.13,160.43h5.12c2.73,0,4.33,1.69,4.33,3.72,0,1.06-.51,2-1.34,2.46,1.34.46,2.44,1.67,2.44,3.5,0,2.27-1.92,4.25-4.91,4.25h-5.63v-13.93Zm2.42,2.05v3.37h2.7c1.23,0,1.91-.77,1.91-1.71s-.68-1.67-1.91-1.67h-2.7Zm0,5.43v4.4h3.21c1.52,0,2.49-1.01,2.49-2.2s-.97-2.2-2.49-2.2h-3.21Z"/>
      </g>
      <g>
        <path class="cls-8" d="m24.55,183.8h2.32c1.18,0,1.91.72,1.91,1.59,0,.63-.39,1.04-.74,1.24.52.19,1.25.68,1.25,1.67s-.85,1.84-2.17,1.84h-2.57v-6.34Zm.63.54v2.11h1.69c.79,0,1.29-.47,1.29-1.06s-.5-1.05-1.29-1.05h-1.69Zm0,2.65v2.61h1.94c.92,0,1.54-.6,1.54-1.3s-.62-1.31-1.54-1.31h-1.94Z"/>
        <path class="cls-8" d="m30.72,189.6h3.77v.54h-4.4v-6.34h4.26v.54h-3.64v2.27h3.05v.54h-3.05v2.44Z"/>
        <path class="cls-8" d="m37.55,187.05l1.91-3.26h.66l-2.46,4.16v2.18h-.63v-2.18l-2.46-4.16h.66l1.91,3.26.2.38.2-.38Z"/>
        <path class="cls-8" d="m43.29,183.63c1.78,0,3.13,1.35,3.13,3.34s-1.35,3.34-3.13,3.34-3.13-1.35-3.13-3.34,1.35-3.34,3.13-3.34Zm0,.54c-1.4,0-2.5,1.12-2.5,2.8s1.11,2.8,2.5,2.8,2.5-1.12,2.5-2.8-1.11-2.8-2.5-2.8Z"/>
        <path class="cls-8" d="m48.2,185.19l-.28-.51.02.58v4.87h-.63v-6.34h.64l3.28,4.83.37.62-.02-.76v-4.68h.63v6.34h-.64l-3.38-4.95Z"/>
        <path class="cls-8" d="m55.21,183.8c2.04,0,3.39,1.36,3.39,3.17s-1.35,3.17-3.39,3.17h-1.68v-6.34h1.68Zm-1.06.54v5.26h1.06c1.64,0,2.77-1.11,2.77-2.63s-1.13-2.63-2.77-2.63h-1.06Z"/>
        <path class="cls-8" d="m62.69,190.14h-.63v-6.34h4.19v.54h-3.56v2.42h2.97v.54h-2.97v2.84Z"/>
        <path class="cls-8" d="m67.76,190.14h-.63v-6.34h.63v6.34Z"/>
        <path class="cls-8" d="m70.71,184.34h-2.22v-.54h5.07v.54h-2.22v5.8h-.63v-5.8Z"/>
        <path class="cls-8" d="m75.17,185.19l-.28-.51.02.58v4.87h-.63v-6.34h.64l3.28,4.83.37.62-.02-.76v-4.68h.63v6.34h-.64l-3.38-4.95Z"/>
        <path class="cls-8" d="m81.12,189.6h3.77v.54h-4.4v-6.34h4.26v.54h-3.64v2.27h3.05v.54h-3.05v2.44Z"/>
        <path class="cls-8" d="m88.84,184.8c-.36-.38-.88-.63-1.49-.63-.85,0-1.32.5-1.32,1.06,0,.49.28.82.99,1.13l.9.38c.56.24,1.6.59,1.6,1.78,0,.98-.87,1.8-2.17,1.8-1.14,0-1.97-.75-2.28-1.3l.42-.41c.29.57,1.02,1.17,1.86,1.17.93,0,1.54-.55,1.54-1.26,0-.37-.16-.8-1.13-1.21l-.92-.37c-1.06-.45-1.44-1-1.44-1.7,0-.9.76-1.6,1.94-1.6.84,0,1.46.33,1.89.79l-.4.37Z"/>
        <path class="cls-8" d="m93.47,184.8c-.36-.38-.88-.63-1.49-.63-.85,0-1.32.5-1.32,1.06,0,.49.28.82.99,1.13l.9.38c.56.24,1.6.59,1.6,1.78,0,.98-.87,1.8-2.17,1.8-1.14,0-1.97-.75-2.28-1.3l.42-.41c.29.57,1.02,1.17,1.86,1.17.93,0,1.54-.55,1.54-1.26,0-.37-.16-.8-1.13-1.21l-.92-.37c-1.06-.45-1.44-1-1.44-1.7,0-.9.76-1.6,1.94-1.6.84,0,1.46.33,1.89.79l-.4.37Z"/>
        <path class="cls-8" d="m95.29,190.44c0,.4-.28.85-.63,1.1l-.21-.19c.26-.2.39-.52.39-.81h-.36v-.81h.81v.71Z"/>
        <path class="cls-8" d="m99.55,189.6h3.64v.54h-4.26v-6.34h.63v5.8Z"/>
        <path class="cls-8" d="m104.45,189.6h3.77v.54h-4.4v-6.34h4.26v.54h-3.64v2.27h3.05v.54h-3.05v2.44Z"/>
        <path class="cls-8" d="m110.61,184.34h-2.22v-.54h5.07v.54h-2.22v5.8h-.63v-5.8Z"/>
        <path class="cls-8" d="m114.24,183.7c0,.4-.28.85-.63,1.1l-.21-.19c.26-.2.39-.52.39-.81h-.36v-.81h.81v.71Z"/>
        <path class="cls-8" d="m118.82,184.8c-.36-.38-.88-.63-1.49-.63-.85,0-1.32.5-1.32,1.06,0,.49.28.82.99,1.13l.9.38c.56.24,1.6.59,1.6,1.78,0,.98-.87,1.8-2.17,1.8-1.14,0-1.97-.75-2.28-1.3l.42-.41c.29.57,1.02,1.17,1.86,1.17.93,0,1.54-.55,1.54-1.26,0-.37-.16-.8-1.13-1.21l-.92-.37c-1.06-.45-1.44-1-1.44-1.7,0-.9.76-1.6,1.94-1.6.84,0,1.46.33,1.89.79l-.4.37Z"/>
        <path class="cls-8" d="m126.27,185.32l-1.52,4.82h-.55l-2.05-6.34h.64l1.52,4.85.16.62.14-.62,1.5-4.85h.56l1.5,4.85.14.62.16-.62,1.52-4.85h.64l-2.05,6.34h-.55l-1.52-4.82-.13-.51-.13.51Z"/>
        <path class="cls-8" d="m131.9,189.6h3.77v.54h-4.4v-6.34h4.26v.54h-3.64v2.27h3.05v.54h-3.05v2.44Z"/>
        <path class="cls-8" d="m137.06,189.6h3.64v.54h-4.26v-6.34h.63v5.8Z"/>
        <path class="cls-8" d="m141.96,189.6h3.64v.54h-4.26v-6.34h.63v5.8Z"/>
        <path class="cls-8" d="m147.13,185.19l-.28-.51.02.58v4.87h-.63v-6.34h.64l3.28,4.83.37.62-.02-.76v-4.68h.63v6.34h-.64l-3.38-4.95Z"/>
        <path class="cls-8" d="m153.09,189.6h3.77v.54h-4.4v-6.34h4.26v.54h-3.64v2.27h3.05v.54h-3.05v2.44Z"/>
        <path class="cls-8" d="m160.81,184.8c-.36-.38-.88-.63-1.49-.63-.85,0-1.32.5-1.32,1.06,0,.49.28.82.99,1.13l.9.38c.56.24,1.6.59,1.6,1.78,0,.98-.87,1.8-2.17,1.8-1.14,0-1.97-.75-2.28-1.3l.42-.41c.29.57,1.02,1.17,1.86,1.17.93,0,1.54-.55,1.54-1.26,0-.37-.16-.8-1.13-1.21l-.92-.37c-1.06-.45-1.44-1-1.44-1.7,0-.9.76-1.6,1.94-1.6.84,0,1.46.33,1.89.79l-.4.37Z"/>
        <path class="cls-8" d="m165.44,184.8c-.36-.38-.88-.63-1.49-.63-.85,0-1.32.5-1.32,1.06,0,.49.28.82.99,1.13l.9.38c.56.24,1.6.59,1.6,1.78,0,.98-.87,1.8-2.17,1.8-1.14,0-1.97-.75-2.28-1.3l.42-.41c.29.57,1.02,1.17,1.86,1.17.93,0,1.54-.55,1.54-1.26,0-.37-.16-.8-1.13-1.21l-.92-.37c-1.06-.45-1.44-1-1.44-1.7,0-.9.76-1.6,1.94-1.6.84,0,1.46.33,1.89.79l-.4.37Z"/>
      </g>
      <g>
        <path class="cls-7" d="m49.45,53.35h28.29c5.07,0,9.19-4.12,9.19-9.19V13.49c0-1.96-1.59-3.56-3.56-3.56s-3.56,1.59-3.56,3.56v30.67c0,1.15-.93,2.08-2.08,2.08h-28.29c-1.96,0-3.56,1.59-3.56,3.56s1.59,3.56,3.56,3.56Z"/>
        <path class="cls-2" d="m37.94,64.86h42.85c9.74,0,17.67-7.92,17.67-17.67V3.56c0-1.96-1.59-3.56-3.56-3.56s-3.56,1.59-3.56,3.56v43.64c0,5.82-4.73,10.55-10.55,10.55h-42.85c-1.96,0-3.56,1.59-3.56,3.56s1.59,3.56,3.56,3.56Z"/>
        <path class="cls-3" d="m117.04,64.86h32.29c1.96,0,3.56-1.59,3.56-3.56s-1.59-3.56-3.56-3.56h-32.29c-3.9,0-7.08-3.17-7.08-7.08V17.3c0-1.96-1.59-3.56-3.56-3.56s-3.56,1.59-3.56,3.56v33.38c0,7.82,6.37,14.19,14.19,14.19Z"/>
        <path class="cls-6" d="m131.24,92.29h-19.2c-5.07,0-9.19,4.12-9.19,9.19v28.29c0,1.96,1.59,3.56,3.56,3.56s3.56-1.59,3.56-3.56v-28.29c0-1.15.93-2.08,2.08-2.08h19.2c1.96,0,3.56-1.59,3.56-3.56s-1.59-3.56-3.56-3.56Z"/>
        <path class="cls-5" d="m141.18,80.78h-32.17c-9.74,0-17.67,7.92-17.67,17.67v42.85c0,1.96,1.59,3.56,3.56,3.56s3.56-1.59,3.56-3.56v-42.85c0-5.82,4.73-10.55,10.55-10.55h32.17c1.96,0,3.56-1.59,3.56-3.56s-1.59-3.56-3.56-3.56Z"/>
        <path class="cls-4" d="m71.23,80.78h-27.7c-1.96,0-3.56,1.59-3.56,3.56s1.59,3.56,3.56,3.56h27.7c4.74,0,8.59,3.85,8.59,8.59v36.9c0,1.96,1.59,3.56,3.56,3.56s3.56-1.59,3.56-3.56v-36.9c0-8.66-7.05-15.71-15.71-15.71Z"/>
        <path class="cls-1" d="m164.89,69.26H25.78c-1.96,0-3.56,1.59-3.56,3.56s1.59,3.56,3.56,3.56h139.11c1.96,0,3.56-1.59,3.56-3.56s-1.59-3.56-3.56-3.56Z"/>
      </g>
    </g>
  </g>
</svg>