<?xml version="1.0" encoding="UTF-8"?>
<svg id="_레이어_2" data-name="레이어 2" xmlns="http://www.w3.org/2000/svg" xmlns:xlink="http://www.w3.org/1999/xlink" viewBox="0 0 252.55 57.97">
  <defs>
    <style>
      .cls-1 {
        fill: url(#_무제_그라디언트_3-7);
      }

      .cls-1, .cls-2, .cls-3, .cls-4, .cls-5, .cls-6, .cls-7, .cls-8, .cls-9 {
        stroke-width: 0px;
      }

      .cls-2 {
        fill: url(#_무제_그라디언트_3-2);
      }

      .cls-3 {
        fill: url(#_무제_그라디언트_3-3);
      }

      .cls-4 {
        fill: url(#_무제_그라디언트_3-6);
      }

      .cls-5 {
        fill: url(#_무제_그라디언트_3-5);
      }

      .cls-6 {
        fill: url(#_무제_그라디언트_3-4);
      }

      .cls-7 {
        fill: url(#_무제_그라디언트_3);
      }

      .cls-8 {
        fill: #727171;
      }

      .cls-9 {
        fill: #2f2725;
      }
    </style>
    <linearGradient id="_무제_그라디언트_3" data-name="무제 그라디언트 3" x1="20.68" y1="16.47" x2="38.42" y2="39.05" gradientUnits="userSpaceOnUse">
      <stop offset="0" stop-color="#009f5d"/>
      <stop offset="1" stop-color="#449ac9"/>
    </linearGradient>
    <linearGradient id="_무제_그라디언트_3-2" data-name="무제 그라디언트 3" x1="20.52" y1="16.59" x2="38.27" y2="39.17" xlink:href="#_무제_그라디언트_3"/>
    <linearGradient id="_무제_그라디언트_3-3" data-name="무제 그라디언트 3" x1="30.79" y1="8.52" x2="48.54" y2="31.1" xlink:href="#_무제_그라디언트_3"/>
    <linearGradient id="_무제_그라디언트_3-4" data-name="무제 그라디언트 3" x1="17.86" y1="18.68" x2="35.61" y2="41.26" xlink:href="#_무제_그라디언트_3"/>
    <linearGradient id="_무제_그라디언트_3-5" data-name="무제 그라디언트 3" x1="17.67" y1="18.83" x2="35.41" y2="41.42" xlink:href="#_무제_그라디언트_3"/>
    <linearGradient id="_무제_그라디언트_3-6" data-name="무제 그라디언트 3" x1="8.93" y1="25.7" x2="26.67" y2="48.28" xlink:href="#_무제_그라디언트_3"/>
    <linearGradient id="_무제_그라디언트_3-7" data-name="무제 그라디언트 3" x1="19.83" y1="17.14" x2="37.57" y2="39.72" xlink:href="#_무제_그라디언트_3"/>
  </defs>
  <g id="_레이어_1-2" data-name="레이어 1">
    <g>
      <g>
        <path class="cls-9" d="m70.86,22.55l-2.57,8.49h-2l-4.42-13.93h2.46l2.68,8.84.26,1.08.26-1.08,2.62-8.84h2.02l2.62,8.84.26,1.08.26-1.08,2.68-8.84h2.46l-4.42,13.93h-2l-2.57-8.49-.29-1.12-.29,1.12Z"/>
        <path class="cls-9" d="m84.89,28.98h7.39v2.05h-9.81v-13.93h9.52v2.05h-7.09v3.72h5.85v2.03h-5.85v4.07Z"/>
        <path class="cls-9" d="m96.97,28.98h7.21v2.05h-9.63v-13.93h2.42v11.88Z"/>
        <path class="cls-9" d="m108.52,28.98h7.2v2.05h-9.63v-13.93h2.42v11.88Z"/>
        <path class="cls-9" d="m120.07,21.48v9.55h-2.42v-13.93h2.22l6.36,9.63v-9.63h2.42v13.93h-2.22l-6.36-9.55Z"/>
        <path class="cls-9" d="m134.46,28.98h7.39v2.05h-9.81v-13.93h9.52v2.05h-7.1v3.72h5.85v2.03h-5.85v4.07Z"/>
        <path class="cls-9" d="m150.92,20.29c-.82-.95-1.89-1.48-2.93-1.48-1.34,0-1.98.77-1.98,1.67,0,.82.35,1.39,1.52,1.91l1.8.79c1.89.82,3.52,1.74,3.52,4.07s-1.94,4.14-4.84,4.14c-2.51,0-4.42-1.82-5.15-3.19l1.54-1.48c.7,1.54,2.09,2.62,3.61,2.62s2.42-.84,2.42-2.09c0-.62-.15-1.38-1.82-2.07l-1.83-.77c-2.37-.99-3.19-2.29-3.19-3.92,0-2.09,1.72-3.72,4.4-3.72,1.87,0,3.39.82,4.44,2.11l-1.5,1.43Z"/>
        <path class="cls-9" d="m161.87,20.29c-.82-.95-1.89-1.48-2.93-1.48-1.34,0-1.98.77-1.98,1.67,0,.82.35,1.39,1.52,1.91l1.8.79c1.89.82,3.52,1.74,3.52,4.07s-1.94,4.14-4.84,4.14c-2.51,0-4.42-1.82-5.15-3.19l1.54-1.48c.7,1.54,2.09,2.62,3.61,2.62s2.42-.84,2.42-2.09c0-.62-.15-1.38-1.82-2.07l-1.83-.77c-2.37-.99-3.19-2.29-3.19-3.92,0-2.09,1.72-3.72,4.4-3.72,1.87,0,3.39.82,4.44,2.11l-1.5,1.43Z"/>
        <path class="cls-9" d="m173.45,17.1c4.42,0,7.37,3.01,7.37,6.97s-2.95,6.97-7.37,6.97h-3.91v-13.93h3.91Zm-1.48,2.05v9.83h1.48c2.95,0,4.95-2.07,4.95-4.91s-2-4.91-4.95-4.91h-1.48Z"/>
        <path class="cls-9" d="m185.46,31.04h-2.42v-13.93h2.42v13.93Z"/>
        <path class="cls-9" d="m190.93,28.98h7.39v2.05h-9.81v-13.93h9.52v2.05h-7.1v3.72h5.85v2.03h-5.85v4.07Z"/>
        <path class="cls-9" d="m203.78,19.16h-4.47v-2.05h11.37v2.05h-4.47v11.88h-2.42v-11.88Z"/>
        <path class="cls-9" d="m219.47,28.98h7.2v2.05h-9.63v-13.93h2.42v11.88Z"/>
        <path class="cls-9" d="m236.36,27.54h-5.5l-1.43,3.5h-2.49l5.85-13.93h1.65l5.85,13.93h-2.49l-1.43-3.5Zm-4.66-2.05h3.81l-1.91-4.66-1.91,4.66Z"/>
        <path class="cls-9" d="m242,17.1h5.12c2.73,0,4.33,1.69,4.33,3.72,0,1.06-.51,2-1.34,2.46,1.34.46,2.44,1.67,2.44,3.5,0,2.27-1.92,4.25-4.91,4.25h-5.63v-13.93Zm2.42,2.05v3.37h2.7c1.23,0,1.91-.77,1.91-1.71s-.68-1.67-1.91-1.67h-2.7Zm0,5.43v4.4h3.21c1.52,0,2.49-1.01,2.49-2.2s-.97-2.2-2.49-2.2h-3.21Z"/>
      </g>
      <g>
        <path class="cls-8" d="m61.88,40.47h2.32c1.18,0,1.91.72,1.91,1.59,0,.63-.39,1.04-.74,1.24.52.19,1.25.68,1.25,1.67s-.85,1.84-2.17,1.84h-2.57v-6.34Zm.63.54v2.11h1.69c.79,0,1.29-.47,1.29-1.06s-.5-1.05-1.29-1.05h-1.69Zm0,2.65v2.61h1.94c.92,0,1.54-.6,1.54-1.3s-.62-1.31-1.54-1.31h-1.94Z"/>
        <path class="cls-8" d="m68.04,46.27h3.77v.54h-4.4v-6.34h4.26v.54h-3.64v2.27h3.05v.54h-3.05v2.44Z"/>
        <path class="cls-8" d="m74.87,43.73l1.91-3.26h.66l-2.46,4.16v2.18h-.63v-2.18l-2.46-4.16h.66l1.91,3.26.2.38.2-.38Z"/>
        <path class="cls-8" d="m80.62,40.3c1.78,0,3.13,1.35,3.13,3.34s-1.35,3.34-3.13,3.34-3.13-1.35-3.13-3.34,1.35-3.34,3.13-3.34Zm0,.54c-1.4,0-2.5,1.12-2.5,2.8s1.11,2.8,2.5,2.8,2.5-1.12,2.5-2.8-1.11-2.8-2.5-2.8Z"/>
        <path class="cls-8" d="m85.52,41.87l-.28-.51.02.58v4.87h-.63v-6.34h.64l3.28,4.83.37.62-.02-.76v-4.68h.63v6.34h-.64l-3.38-4.95Z"/>
        <path class="cls-8" d="m92.54,40.47c2.04,0,3.39,1.36,3.39,3.17s-1.35,3.17-3.39,3.17h-1.68v-6.34h1.68Zm-1.06.54v5.26h1.06c1.64,0,2.77-1.11,2.77-2.63s-1.13-2.63-2.77-2.63h-1.06Z"/>
        <path class="cls-8" d="m100.01,46.81h-.63v-6.34h4.19v.54h-3.56v2.42h2.97v.54h-2.97v2.84Z"/>
        <path class="cls-8" d="m105.09,46.81h-.63v-6.34h.63v6.34Z"/>
        <path class="cls-8" d="m108.03,41.01h-2.22v-.54h5.07v.54h-2.22v5.8h-.63v-5.8Z"/>
        <path class="cls-8" d="m112.49,41.87l-.28-.51.02.58v4.87h-.63v-6.34h.64l3.28,4.83.37.62-.02-.76v-4.68h.63v6.34h-.64l-3.38-4.95Z"/>
        <path class="cls-8" d="m118.45,46.27h3.77v.54h-4.4v-6.34h4.26v.54h-3.64v2.27h3.05v.54h-3.05v2.44Z"/>
        <path class="cls-8" d="m126.17,41.47c-.36-.38-.88-.63-1.49-.63-.85,0-1.32.5-1.32,1.06,0,.49.28.82.99,1.13l.9.38c.56.24,1.6.59,1.6,1.78,0,.98-.87,1.8-2.17,1.8-1.14,0-1.97-.75-2.28-1.3l.42-.41c.29.57,1.02,1.17,1.86,1.17.93,0,1.54-.55,1.54-1.26,0-.37-.16-.8-1.13-1.21l-.92-.37c-1.06-.45-1.44-1-1.44-1.7,0-.9.76-1.6,1.94-1.6.84,0,1.46.33,1.89.79l-.4.37Z"/>
        <path class="cls-8" d="m130.79,41.47c-.36-.38-.88-.63-1.49-.63-.85,0-1.32.5-1.32,1.06,0,.49.28.82.99,1.13l.9.38c.56.24,1.6.59,1.6,1.78,0,.98-.87,1.8-2.17,1.8-1.14,0-1.97-.75-2.28-1.3l.42-.41c.29.57,1.02,1.17,1.86,1.17.93,0,1.54-.55,1.54-1.26,0-.37-.16-.8-1.13-1.21l-.92-.37c-1.06-.45-1.44-1-1.44-1.7,0-.9.76-1.6,1.94-1.6.84,0,1.46.33,1.89.79l-.4.37Z"/>
        <path class="cls-8" d="m132.62,47.12c0,.4-.28.85-.63,1.1l-.21-.19c.26-.2.39-.52.39-.81h-.36v-.81h.81v.71Z"/>
        <path class="cls-8" d="m136.87,46.27h3.64v.54h-4.26v-6.34h.63v5.8Z"/>
        <path class="cls-8" d="m141.78,46.27h3.77v.54h-4.4v-6.34h4.26v.54h-3.64v2.27h3.05v.54h-3.05v2.44Z"/>
        <path class="cls-8" d="m147.94,41.01h-2.22v-.54h5.07v.54h-2.22v5.8h-.63v-5.8Z"/>
        <path class="cls-8" d="m151.56,40.37c0,.4-.28.85-.63,1.1l-.21-.19c.26-.2.39-.52.39-.81h-.36v-.81h.81v.71Z"/>
        <path class="cls-8" d="m156.15,41.47c-.36-.38-.88-.63-1.49-.63-.85,0-1.32.5-1.32,1.06,0,.49.28.82.99,1.13l.9.38c.56.24,1.6.59,1.6,1.78,0,.98-.87,1.8-2.17,1.8-1.14,0-1.97-.75-2.28-1.3l.42-.41c.29.57,1.02,1.17,1.86,1.17.93,0,1.54-.55,1.54-1.26,0-.37-.16-.8-1.13-1.21l-.92-.37c-1.06-.45-1.44-1-1.44-1.7,0-.9.76-1.6,1.94-1.6.84,0,1.46.33,1.89.79l-.4.37Z"/>
        <path class="cls-8" d="m163.59,41.99l-1.52,4.82h-.55l-2.05-6.34h.64l1.52,4.85.16.62.14-.62,1.5-4.85h.56l1.5,4.85.14.62.16-.62,1.52-4.85h.64l-2.05,6.34h-.55l-1.52-4.82-.13-.51-.13.51Z"/>
        <path class="cls-8" d="m169.23,46.27h3.77v.54h-4.4v-6.34h4.26v.54h-3.64v2.27h3.05v.54h-3.05v2.44Z"/>
        <path class="cls-8" d="m174.38,46.27h3.64v.54h-4.26v-6.34h.63v5.8Z"/>
        <path class="cls-8" d="m179.29,46.27h3.64v.54h-4.26v-6.34h.63v5.8Z"/>
        <path class="cls-8" d="m184.46,41.87l-.28-.51.02.58v4.87h-.63v-6.34h.64l3.28,4.83.37.62-.02-.76v-4.68h.63v6.34h-.64l-3.38-4.95Z"/>
        <path class="cls-8" d="m190.42,46.27h3.77v.54h-4.4v-6.34h4.26v.54h-3.64v2.27h3.05v.54h-3.05v2.44Z"/>
        <path class="cls-8" d="m198.13,41.47c-.36-.38-.88-.63-1.49-.63-.85,0-1.32.5-1.32,1.06,0,.49.28.82.99,1.13l.9.38c.56.24,1.6.59,1.6,1.78,0,.98-.87,1.8-2.17,1.8-1.14,0-1.97-.75-2.28-1.3l.42-.41c.29.57,1.02,1.17,1.86,1.17.93,0,1.54-.55,1.54-1.26,0-.37-.16-.8-1.13-1.21l-.92-.37c-1.06-.45-1.44-1-1.44-1.7,0-.9.76-1.6,1.94-1.6.84,0,1.46.33,1.89.79l-.4.37Z"/>
        <path class="cls-8" d="m202.76,41.47c-.36-.38-.88-.63-1.49-.63-.85,0-1.32.5-1.32,1.06,0,.49.28.82.99,1.13l.9.38c.56.24,1.6.59,1.6,1.78,0,.98-.87,1.8-2.17,1.8-1.14,0-1.97-.75-2.28-1.3l.42-.41c.29.57,1.02,1.17,1.86,1.17.93,0,1.54-.55,1.54-1.26,0-.37-.16-.8-1.13-1.21l-.92-.37c-1.06-.45-1.44-1-1.44-1.7,0-.9.76-1.6,1.94-1.6.84,0,1.46.33,1.89.79l-.4.37Z"/>
      </g>
      <g>
        <path class="cls-7" d="m10.9,21.35h11.32c2.03,0,3.68-1.65,3.68-3.68V5.4c0-.79-.64-1.42-1.42-1.42s-1.42.64-1.42,1.42v12.27c0,.46-.37.83-.83.83h-11.32c-.79,0-1.42.64-1.42,1.42s.64,1.42,1.42,1.42Z"/>
        <path class="cls-2" d="m6.29,25.96h17.15c3.9,0,7.07-3.17,7.07-7.07V1.42c0-.79-.64-1.42-1.42-1.42s-1.42.64-1.42,1.42v17.46c0,2.33-1.89,4.22-4.22,4.22H6.29c-.79,0-1.42.64-1.42,1.42s.64,1.42,1.42,1.42Z"/>
        <path class="cls-3" d="m37.94,25.96h12.92c.79,0,1.42-.64,1.42-1.42s-.64-1.42-1.42-1.42h-12.92c-1.56,0-2.83-1.27-2.83-2.83V6.92c0-.79-.64-1.42-1.42-1.42s-1.42.64-1.42,1.42v13.36c0,3.13,2.55,5.68,5.68,5.68Z"/>
        <path class="cls-6" d="m43.63,36.93h-7.68c-2.03,0-3.68,1.65-3.68,3.68v11.32c0,.79.64,1.42,1.42,1.42s1.42-.64,1.42-1.42v-11.32c0-.46.37-.83.83-.83h7.68c.79,0,1.42-.64,1.42-1.42s-.64-1.42-1.42-1.42Z"/>
        <path class="cls-5" d="m47.6,32.33h-12.87c-3.9,0-7.07,3.17-7.07,7.07v17.15c0,.79.64,1.42,1.42,1.42s1.42-.64,1.42-1.42v-17.15c0-2.33,1.89-4.22,4.22-4.22h12.87c.79,0,1.42-.64,1.42-1.42s-.64-1.42-1.42-1.42Z"/>
        <path class="cls-4" d="m19.61,32.33h-11.09c-.79,0-1.42.64-1.42,1.42s.64,1.42,1.42,1.42h11.09c1.9,0,3.44,1.54,3.44,3.44v14.77c0,.79.64,1.42,1.42,1.42s1.42-.64,1.42-1.42v-14.77c0-3.47-2.82-6.29-6.29-6.29Z"/>
        <path class="cls-1" d="m57.09,27.72H1.42c-.79,0-1.42.64-1.42,1.42s.64,1.42,1.42,1.42h55.67c.79,0,1.42-.64,1.42-1.42s-.64-1.42-1.42-1.42Z"/>
      </g>
    </g>
  </g>
</svg>