<?xml version="1.0" encoding="UTF-8"?>
<svg id="_레이어_1" data-name="레이어 1" xmlns="http://www.w3.org/2000/svg" xmlns:xlink="http://www.w3.org/1999/xlink" viewBox="0 0 146.22 144.85">
  <defs>
    <style>
      .cls-1 {
        fill: url(#_무제_그라디언트_3-7);
      }

      .cls-1, .cls-2, .cls-3, .cls-4, .cls-5, .cls-6, .cls-7 {
        stroke-width: 0px;
      }

      .cls-2 {
        fill: url(#_무제_그라디언트_3-2);
      }

      .cls-3 {
        fill: url(#_무제_그라디언트_3-3);
      }

      .cls-4 {
        fill: url(#_무제_그라디언트_3-6);
      }

      .cls-5 {
        fill: url(#_무제_그라디언트_3-5);
      }

      .cls-6 {
        fill: url(#_무제_그라디언트_3-4);
      }

      .cls-7 {
        fill: url(#_무제_그라디언트_3);
      }
    </style>
    <linearGradient id="_무제_그라디언트_3" data-name="무제 그라디언트 3" x1="51.67" y1="41.16" x2="96.01" y2="97.59" gradientUnits="userSpaceOnUse">
      <stop offset="0" stop-color="#009f5d"/>
      <stop offset="1" stop-color="#449ac9"/>
    </linearGradient>
    <linearGradient id="_무제_그라디언트_3-2" data-name="무제 그라디언트 3" x1="51.29" y1="41.46" x2="95.62" y2="97.89" xlink:href="#_무제_그라디언트_3"/>
    <linearGradient id="_무제_그라디언트_3-3" data-name="무제 그라디언트 3" x1="76.95" y1="21.3" x2="121.29" y2="77.72" xlink:href="#_무제_그라디언트_3"/>
    <linearGradient id="_무제_그라디언트_3-4" data-name="무제 그라디언트 3" x1="44.64" y1="46.68" x2="88.98" y2="103.11" xlink:href="#_무제_그라디언트_3"/>
    <linearGradient id="_무제_그라디언트_3-5" data-name="무제 그라디언트 3" x1="44.15" y1="47.07" x2="88.49" y2="103.49" xlink:href="#_무제_그라디언트_3"/>
    <linearGradient id="_무제_그라디언트_3-6" data-name="무제 그라디언트 3" x1="22.31" y1="64.23" x2="66.64" y2="120.66" xlink:href="#_무제_그라디언트_3"/>
    <linearGradient id="_무제_그라디언트_3-7" data-name="무제 그라디언트 3" x1="49.54" y1="42.83" x2="93.88" y2="99.26" xlink:href="#_무제_그라디언트_3"/>
  </defs>
  <path class="cls-7" d="m27.23,53.35h28.29c5.07,0,9.19-4.12,9.19-9.19V13.49c0-1.96-1.59-3.56-3.56-3.56s-3.56,1.59-3.56,3.56v30.67c0,1.15-.93,2.08-2.08,2.08h-28.29c-1.96,0-3.56,1.59-3.56,3.56s1.59,3.56,3.56,3.56Z"/>
  <path class="cls-2" d="m15.71,64.86h42.85c9.74,0,17.67-7.92,17.67-17.67V3.56c0-1.96-1.59-3.56-3.56-3.56s-3.56,1.59-3.56,3.56v43.64c0,5.82-4.73,10.55-10.55,10.55H15.71c-1.96,0-3.56,1.59-3.56,3.56s1.59,3.56,3.56,3.56Z"/>
  <path class="cls-3" d="m94.82,64.86h32.29c1.96,0,3.56-1.59,3.56-3.56s-1.59-3.56-3.56-3.56h-32.29c-3.9,0-7.08-3.17-7.08-7.08V17.3c0-1.96-1.59-3.56-3.56-3.56s-3.56,1.59-3.56,3.56v33.38c0,7.82,6.37,14.19,14.19,14.19Z"/>
  <path class="cls-6" d="m109.02,92.29h-19.2c-5.07,0-9.19,4.12-9.19,9.19v28.29c0,1.96,1.59,3.56,3.56,3.56s3.56-1.59,3.56-3.56v-28.29c0-1.15.93-2.08,2.08-2.08h19.2c1.96,0,3.56-1.59,3.56-3.56s-1.59-3.56-3.56-3.56Z"/>
  <path class="cls-5" d="m118.95,80.78h-32.17c-9.74,0-17.67,7.92-17.67,17.67v42.85c0,1.96,1.59,3.56,3.56,3.56s3.56-1.59,3.56-3.56v-42.85c0-5.82,4.73-10.55,10.55-10.55h32.17c1.96,0,3.56-1.59,3.56-3.56s-1.59-3.56-3.56-3.56Z"/>
  <path class="cls-4" d="m49.01,80.78h-27.7c-1.96,0-3.56,1.59-3.56,3.56s1.59,3.56,3.56,3.56h27.7c4.74,0,8.59,3.85,8.59,8.59v36.9c0,1.96,1.59,3.56,3.56,3.56s3.56-1.59,3.56-3.56v-36.9c0-8.66-7.05-15.71-15.71-15.71Z"/>
  <path class="cls-1" d="m142.66,69.26H3.56c-1.96,0-3.56,1.59-3.56,3.56s1.59,3.56,3.56,3.56h139.11c1.96,0,3.56-1.59,3.56-3.56s-1.59-3.56-3.56-3.56Z"/>
</svg>